<?xml version="1.0" standalone="no"?>
<!DOCTYPE svg PUBLIC "-//W3C//DTD SVG 20010904//EN"
 "http://www.w3.org/TR/2001/REC-SVG-20010904/DTD/svg10.dtd">
<svg version="1.0" xmlns="http://www.w3.org/2000/svg"
 width="10px" height="10px" viewBox="0 0 512.000000 512.000000"
 preserveAspectRatio="xMidYMid meet">

<g transform="translate(0.000000,512.000000) scale(0.100000,-0.100000)"
fill="#000000" stroke="none">
<path d="M775 4881 c-87 -22 -174 -92 -215 -176 l-25 -50 -3 -2192 -2 -2192
20 -55 c29 -77 95 -146 172 -182 61 -27 68 -28 248 -31 106 -1 174 1 160 6
-91 30 -164 92 -208 176 -22 42 -26 66 -30 155 -2 58 -10 122 -18 143 -22 58
-21 3870 1 3924 9 22 15 68 15 122 0 50 7 110 15 139 23 75 87 150 164 190
l63 32 -164 -1 c-89 -1 -176 -4 -193 -8z"/>
<path d="M1732 3743 c-10 -16 -47 -80 -82 -143 -35 -63 -65 -117 -67 -120 -2
-2 -16 11 -31 30 -71 93 -119 113 -162 70 -40 -40 -28 -75 69 -196 49 -61 99
-114 111 -117 34 -9 67 9 93 50 58 94 207 370 207 385 0 8 -9 27 -21 42 -30
38 -90 37 -117 -1z"/>
<path d="M2355 3750 c-10 -11 -18 -34 -18 -50 0 -16 8 -39 18 -50 18 -20 30
-20 569 -20 303 0 556 4 562 8 20 13 36 54 30 77 -15 57 11 55 -590 55 -541 0
-553 0 -571 -20z"/>
<path d="M2367 3418 c-40 -31 -36 -115 8 -132 9 -3 336 -6 726 -6 l710 0 24
25 c14 13 25 36 25 50 0 14 -11 37 -25 50 l-24 25 -714 0 c-555 0 -717 -3
-730 -12z"/>
<path d="M1743 2548 c-12 -13 -51 -77 -88 -143 -37 -66 -69 -122 -71 -124 -2
-2 -30 23 -62 57 -63 68 -84 74 -126 41 -48 -38 -38 -73 59 -196 142 -179 149
-177 298 87 119 212 130 247 88 281 -31 26 -73 24 -98 -3z"/>
<path d="M2367 2558 c-40 -31 -36 -115 8 -132 9 -3 259 -6 556 -6 l540 0 24
25 c14 13 25 36 25 50 0 14 -11 37 -25 50 l-24 25 -544 0 c-419 0 -547 -3
-560 -12z"/>
<path d="M2355 2200 c-10 -11 -18 -34 -18 -50 0 -16 8 -39 18 -50 18 -20 29
-20 741 -20 l723 0 20 26 c26 34 26 54 0 88 l-20 26 -723 0 c-712 0 -723 0
-741 -20z"/>
<path d="M1775 1362 c-32 -7 -40 -17 -115 -152 -39 -71 -74 -132 -79 -134 -4
-3 -25 17 -46 45 -21 27 -46 54 -56 59 -51 28 -109 -5 -109 -63 0 -26 18 -55
90 -145 89 -110 101 -119 150 -112 8 1 22 9 32 18 23 24 228 394 228 413 0 22
-35 66 -57 71 -10 2 -27 2 -38 0z"/>
<path d="M2355 1340 c-10 -11 -18 -34 -18 -50 0 -16 8 -39 18 -50 18 -20 30
-20 569 -20 303 0 556 4 562 8 20 13 36 54 30 77 -15 57 11 55 -590 55 -541 0
-553 0 -571 -20z"/>
<path d="M2367 1008 c-40 -31 -36 -115 8 -132 9 -3 336 -6 726 -6 l710 0 24
25 c14 13 25 36 25 50 0 14 -11 37 -25 50 l-24 25 -714 0 c-555 0 -717 -3
-730 -12z"/>
</g>
</svg>
